# xmcd CD database file
#
# Track frame offsets:
#	150
#	11807
#	23305
#	36767
#	51147
#	62660
#	75045
#	84757
#	97252
#	110247
#	120410
#	135047
#	155900
#	175407
#	187975
#	202592
#	217042
#
# Disc length: 3054 seconds
#
# Revision: 1
# Processed by: cddbd v1.4PL0 Copyright (c) Steve Scherf et al.
# Submitted via: CDex 1.51
#
DISCID=ce0bec11
DTITLE=Charlie Shavers - Shavers Shivers
DYEAR=1900
DGENRE=Jazz
TTITLE0=Kidney stew
TTITLE1=Feels so good
TTITLE2=Puddle wump
TTITLE3=Serenade to a pair of nylons
TTITLE4=Shavers shivers
TTITLE5=Emaline
TTITLE6=The cuttin' out blues
TTITLE7=Your daddy's got the gleeks
TTITLE8=Song of India
TTITLE9=At the fat man's
TTITLE10=Deuce-a-rini
TTITLE11=Summertime
TTITLE12=Echoes of Harlem
TTITLE13=Amor
TTITLE14=Rose room
TTITLE15=She's funny that way
TTITLE16=On the spot
EXTD=
EXTT0=
EXTT1=
EXTT2=
EXTT3=
EXTT4=
EXTT5=
EXTT6=
EXTT7=
EXTT8=
EXTT9=
EXTT10=
EXTT11=
EXTT12=
EXTT13=
EXTT14=
EXTT15=
EXTT16=
PLAYORDER=
